<svg id="Capa_1" enable-background="new 0 0 512 512" height="512" viewBox="0 0 512 512" width="512" xmlns="http://www.w3.org/2000/svg">
<g>
<path stroke="white" fill="white"  d="m291 218.5h-70c-4.142 0-7.5 3.357-7.5 7.5s3.358 7.5 7.5 7.5h70c4.142 0 7.5-3.357 7.5-7.5s-3.358-7.5-7.5-7.5z"/>
<path stroke="white" fill="white"  d="m291 278.5h-70c-4.142 0-7.5 3.357-7.5 7.5s3.358 7.5 7.5 7.5h70c4.142 0 7.5-3.357 7.5-7.5s-3.358-7.5-7.5-7.5z"/>
<path stroke="white" fill="white"  d="m273.5 263.5c4.142 0 7.5-3.357 7.5-7.5s-3.358-7.5-7.5-7.5h-35c-4.142 0-7.5 3.357-7.5 7.5s3.358 7.5 7.5 7.5z"/>
<path stroke="white" fill="white" d="m484.5 0h-401.5c-4.142 0-7.5 3.357-7.5 7.5s3.358 7.5 7.5 7.5h25.5v14.937c0 6.893 5.607 12.5 12.5 12.5h37.5v20.916h-79.25c-9.649 0-17.5 7.851-17.5 17.5v77.647h-19.314v-37.5c0-6.893-5.607-12.5-12.5-12.5h-14.936v-81c0-6.893 5.607-12.5 12.5-12.5h20.5c4.142 0 7.5-3.357 7.5-7.5s-3.358-7.5-7.5-7.5h-20.5c-15.164 0-27.5 12.337-27.5 27.5v400.5c0 4.143 3.358 7.5 7.5 7.5s7.5-3.357 7.5-7.5v-24.5h14.936c6.893 0 12.5-5.607 12.5-12.5v-37.5h19.314v77.647c0 9.649 7.851 17.5 17.5 17.5h79.25v20.916h-37.5c-6.893 0-12.5 5.607-12.5 12.5v14.937h-81c-6.893 0-12.5-5.607-12.5-12.5v-21.5c0-4.143-3.358-7.5-7.5-7.5s-7.5 3.357-7.5 7.5v21.5c0 15.164 12.336 27.5 27.5 27.5h457c15.164 0 27.5-12.336 27.5-27.5v-457c0-15.164-12.336-27.5-27.5-27.5zm-12.436 338.5h-53.564v-2.5c0-6.893-5.607-12.5-12.5-12.5h-17.5v-15h17.5c6.893 0 12.5-5.607 12.5-12.5v-2.5h44.064v17.5c0 6.893 5.607 12.5 12.5 12.5h21.936v65h-12.436v-37.5c0-6.893-5.607-12.5-12.5-12.5zm-121.064 146.063h37.5v12.437h-65v-21.937c0-6.893-5.607-12.5-12.5-12.5h-17.5v-44.063h2.5c6.893 0 12.5-5.607 12.5-12.5v-17.5h15v17.5c0 6.893 5.607 12.5 12.5 12.5h2.5v53.563c0 6.893 5.607 12.5 12.5 12.5zm-132.5-81.063v-15h15v15zm15 61.563v-46.563h2.5c6.893 0 12.5-5.607 12.5-12.5v-17.5h15v17.5c0 6.893 5.607 12.5 12.5 12.5h2.5v46.563c0 6.893 5.607 12.5 12.5 12.5h17.5v19.437h-105v-19.437h17.5c6.893 0 12.5-5.607 12.5-12.5zm45-61.563v-15h15v15zm60 0v-15h15v15zm-197.5-30c-1.378 0-2.5-1.121-2.5-2.5 0-75.501 0-154.467 0-230 0-1.379 1.122-2.5 2.5-2.5h230c1.378 0 2.5 1.121 2.5 2.5v230c0 1.379-1.122 2.5-2.5 2.5 0 0-157.881 0-230 0zm17.5 30v-15h15v15zm-35-50h-15v-15h15zm-17.5-90c-6.893 0-12.5 5.607-12.5 12.5v2.5h-46.564c-6.893 0-12.5 5.607-12.5 12.5v17.5h-19.436v-105h19.436v17.5c0 6.893 5.607 12.5 12.5 12.5h46.564v2.5c0 6.893 5.607 12.5 12.5 12.5h17.5v15zm17.5-90h-15v-15h15zm0 60h-15v-15h15zm-15 45h15v15h-15zm65-170v15h-15v-15zm47.5-74.063h-17.5v-19.437h105v19.437h-17.5c-6.893 0-12.5 5.607-12.5 12.5v46.563h-2.5c-6.893 0-12.5 5.607-12.5 12.5v17.5h-15v-17.5c0-6.893-5.607-12.5-12.5-12.5h-2.5v-46.563c0-6.893-5.607-12.5-12.5-12.5zm132.5 74.063v15h-15v-15zm-15-68.563v53.563h-2.5c-6.893 0-12.5 5.607-12.5 12.5v17.5h-15v-17.5c0-6.893-5.607-12.5-12.5-12.5h-2.5v-44.063h17.5c6.893 0 12.5-5.607 12.5-12.5v-21.937h65v12.437h-37.5c-6.893 0-12.5 5.607-12.5 12.5zm-45 68.563v15h-15v-15zm-60 0v15h-15v-15zm172.5 80c6.893 0 12.5-5.607 12.5-12.5v-2.5h53.564c6.893 0 12.5-5.607 12.5-12.5v-37.5h12.436v65h-21.936c-6.893 0-12.5 5.607-12.5 12.5v17.5h-44.064v-2.5c0-6.893-5.607-12.5-12.5-12.5h-17.5v-15zm59.064 90h-46.564v-2.5c0-6.893-5.607-12.5-12.5-12.5h-17.5v-15h17.5c6.893 0 12.5-5.607 12.5-12.5v-2.5h46.564c6.893 0 12.5-5.607 12.5-12.5v-17.5h19.436v105h-19.436v-17.5c0-6.893-5.607-12.5-12.5-12.5zm-76.564-60h15v15h-15zm0 60h15v15h-15zm15-105h-15v-15h15zm-15 165h15v15h-15zm108.5-311v81h-14.936c-6.893 0-12.5 5.607-12.5 12.5v37.5h-19.314v-22.5c0-4.143-3.358-7.5-7.5-7.5s-7.5 3.357-7.5 7.5v22.5h-16.75v-2.5c0-6.893-5.607-12.5-12.5-12.5h-17.5v-2.5c0-9.649-7.851-17.5-17.5-17.5h-2.5v-17.5c0-6.893-5.607-12.5-12.5-12.5h-2.5v-15.147h79.25c1.378 0 2.5 1.121 2.5 2.5v20.147c0 4.143 3.358 7.5 7.5 7.5s7.5-3.357 7.5-7.5v-20.147c0-9.649-7.851-17.5-17.5-17.5h-79.25v-20.916h37.5c6.893 0 12.5-5.607 12.5-12.5v-14.937h81c6.893 0 12.5 5.607 12.5 12.5zm-373.5-.063v-12.437h65v21.937c0 6.893 5.607 12.5 12.5 12.5h17.5v44.063h-2.5c-6.893 0-12.5 5.607-12.5 12.5v17.5h-15v-17.5c0-6.893-5.607-12.5-12.5-12.5h-2.5v-53.563c0-6.893-5.607-12.5-12.5-12.5zm-46.75 53.416c0-1.379 1.122-2.5 2.5-2.5h79.25v15.147h-2.5c-6.893 0-12.5 5.607-12.5 12.5v17.5h-2.5c-9.649 0-17.5 7.851-17.5 17.5v2.5h-17.5c-6.893 0-12.5 5.607-12.5 12.5v2.5h-16.75zm-49.314 42.647v37.5c0 6.893 5.607 12.5 12.5 12.5h53.564v2.5c0 6.893 5.607 12.5 12.5 12.5h17.5v15h-17.5c-6.893 0-12.5 5.607-12.5 12.5v2.5h-44.064v-17.5c0-6.893-5.607-12.5-12.5-12.5h-21.936v-65zm12.5 215c-6.893 0-12.5 5.607-12.5 12.5v37.5h-12.436v-65h21.936c6.893 0 12.5-5.607 12.5-12.5v-17.5h44.064v2.5c0 6.893 5.607 12.5 12.5 12.5h17.5v15h-17.5c-6.893 0-12.5 5.607-12.5 12.5v2.5zm39.314 95.147c-1.378 0-2.5-1.121-2.5-2.5v-77.647h16.75v2.5c0 6.893 5.607 12.5 12.5 12.5h17.5v2.5c0 9.649 7.851 17.5 17.5 17.5h2.5v17.5c0 6.893 5.607 12.5 12.5 12.5h2.5v15.147zm44.25 50.916h37.5c6.893 0 12.5-5.607 12.5-12.5v-53.563h2.5c6.893 0 12.5-5.607 12.5-12.5v-17.5h15v17.5c0 6.893 5.607 12.5 12.5 12.5h2.5v44.063h-17.5c-6.893 0-12.5 5.607-12.5 12.5v21.937h-65zm361 12.437h-81v-14.937c0-6.893-5.607-12.5-12.5-12.5h-37.5v-20.916h25.5c4.142 0 7.5-3.357 7.5-7.5s-3.358-7.5-7.5-7.5h-25.5v-15.147h2.5c6.893 0 12.5-5.607 12.5-12.5v-17.5h2.5c9.649 0 17.5-7.851 17.5-17.5v-2.5h17.5c6.893 0 12.5-5.607 12.5-12.5v-2.5h16.75v77.647c0 1.379-1.122 2.5-2.5 2.5h-18.75c-4.142 0-7.5 3.357-7.5 7.5s3.358 7.5 7.5 7.5h18.75c9.649 0 17.5-7.851 17.5-17.5v-77.647h19.314v37.5c0 6.893 5.607 12.5 12.5 12.5h14.936v81c0 6.893-5.607 12.5-12.5 12.5z"/></g></svg>
